<?xml version="1.0" encoding="UTF-8" standalone="no"?>
<!-- Created with Inkscape (http://www.inkscape.org/) -->

<svg
   width="200mm"
   height="200mm"
   viewBox="0 0 200 200"
   version="1.1"
   id="svg5"
   inkscape:version="1.2.2 (732a01da63, 2022-12-09)"
   sodipodi:docname="sila.svg"
   xml:space="preserve"
   inkscape:export-filename="sila.png"
   inkscape:export-xdpi="96"
   inkscape:export-ydpi="96"
   xmlns:inkscape="http://www.inkscape.org/namespaces/inkscape"
   xmlns:sodipodi="http://sodipodi.sourceforge.net/DTD/sodipodi-0.dtd"
   xmlns:xlink="http://www.w3.org/1999/xlink"
   xmlns="http://www.w3.org/2000/svg"
   xmlns:svg="http://www.w3.org/2000/svg"><sodipodi:namedview
     id="namedview7"
     pagecolor="#505050"
     bordercolor="#eeeeee"
     borderopacity="1"
     inkscape:showpageshadow="0"
     inkscape:pageopacity="0"
     inkscape:pagecheckerboard="0"
     inkscape:deskcolor="#505050"
     inkscape:document-units="mm"
     showgrid="false"
     inkscape:zoom="0.99999999"
     inkscape:cx="430"
     inkscape:cy="186"
     inkscape:window-width="1920"
     inkscape:window-height="1137"
     inkscape:window-x="1912"
     inkscape:window-y="-8"
     inkscape:window-maximized="1"
     inkscape:current-layer="layer3-6" /><defs
     id="defs2"><linearGradient
       inkscape:collect="always"
       id="linearGradient2455"><stop
         style="stop-color:#ffffff;stop-opacity:1;"
         offset="0"
         id="stop2451" /><stop
         style="stop-color:#b06e6e;stop-opacity:0;"
         offset="1"
         id="stop2453" /></linearGradient><linearGradient
       id="linearGradient14280"
       inkscape:swatch="solid"><stop
         style="stop-color:#1a1a1a;stop-opacity:1;"
         offset="0"
         id="stop14278" /></linearGradient><radialGradient
       inkscape:collect="always"
       xlink:href="#linearGradient2455"
       id="radialGradient2457"
       cx="104.01865"
       cy="165.21124"
       fx="104.01865"
       fy="165.21124"
       r="70.902372"
       gradientTransform="matrix(-2.1209107,0.11196255,-0.00211583,-0.04008016,287.52056,41.095325)"
       gradientUnits="userSpaceOnUse" /></defs><g
     inkscape:groupmode="layer"
     id="layer3-6"
     inkscape:label="mainshadow"
     style="display:inline"
     transform="matrix(1.404806,0,0,1.404806,-30.004868,-24.963264)"><path
       style="opacity:1;mix-blend-mode:normal;fill:url(#radialGradient2457);fill-opacity:1;stroke:#4d4d4d;stroke-width:1.13666;stroke-dasharray:none;stroke-opacity:1;paint-order:stroke fill markers"
       d="m 22.06843,48.997465 c 46.854958,-4.61421 93.70992,-4.503753 140.56487,0 l -0.38596,3.472078 C 115.82534,47.900024 69.654007,48.08709 22.361304,52.635798 Z"
       id="path11748-5"
       sodipodi:nodetypes="ccccc" /><path
       id="path6457-8"
       style="opacity:1;fill:#ffb380;fill-opacity:1;stroke:#d38d5f;stroke-width:1.11283;stroke-dasharray:none;stroke-opacity:1"
       d="m 133.24832,41.08011 c -0.28025,0.0013 -0.59943,0.03331 -0.96525,0.100057 -2.92659,0.533942 -8.80106,21.905424 -9.74704,24.328798 -0.94598,2.423376 -3.64622,9.042796 -6.08248,14.581756 -4.49222,5.055 -8.69493,10.290789 -11.54033,16.375047 -0.80576,-0.50684 -1.45927,-1.242078 -2.65113,-1.169778 -0.0158,7.45975 1.41599,11.64471 5.14628,21.98961 2.96154,-3.10104 5.04146,-7.92015 5.38025,-12.24257 4.66056,-5.757532 5.97423,-12.779899 9.12352,-19.104157 5.81667,-13.554672 14.82467,-39.66539 14.03586,-41.639667 -0.6902,-1.727493 -0.73797,-3.228484 -2.69968,-3.219096 z m -84.012837,0.578268 c -1.120975,-0.0054 -1.959809,1.36821 -2.699317,3.219095 -0.739507,1.850885 8.219202,28.084995 14.035859,41.639667 3.149303,6.324258 4.46259,13.346988 9.123162,19.10453 0.338787,4.3224 2.418707,9.14116 5.380241,12.2422 3.730302,-10.3449 5.162452,-14.52985 5.146654,-21.989613 -1.191868,-0.07231 -1.84536,0.66295 -2.651128,1.169778 C 74.725538,90.959777 70.522486,85.723988 66.030252,80.668988 63.594002,75.13004 60.894123,68.510607 59.948144,66.087233 59.002165,63.663857 53.12769,42.292377 50.201101,41.758434 c -0.365823,-0.06674 0.155357,-0.09469 -0.965618,-0.100056 z m 41.279538,24.194899 c -5.555411,1.4e-5 -10.058963,5.900004 -10.058984,13.178023 2.2e-5,7.278019 4.503573,13.178008 10.058984,13.178022 5.555409,-1.8e-5 10.058959,-5.900006 10.058979,-13.178022 -2e-5,-7.278017 -4.503569,-13.178005 -10.058979,-13.178023 z m 5.497218,24.42628 c -2.804202,1.375224 -4.429345,4.977683 -10.39042,0.389926 l -2.53415,2.924076 c 0,0 4.055346,6.069707 7.602818,5.770167 3.547474,-0.29954 7.933888,-5.185278 7.933888,-5.185278 z"
       sodipodi:nodetypes="sssccccccssszccccccsssccccccccscc" /><path
       style="opacity:1;fill:#c83737;fill-opacity:1;stroke:#a02c2c;stroke-width:1.11283;stroke-dasharray:none;stroke-opacity:1"
       d="m 99.492043,94.60727 c 0.702907,-0.0278 1.194107,0.33639 1.666747,0.53609 0.2989,8.46807 2.94156,14.98347 5.8087,22.83304 -0.50045,2.9086 -2.092,7.50809 -3.06001,10.49228 -0.96801,2.98419 0.0613,19.47675 0.39991,20.16693 0.33863,0.69017 -2.25186,0.80881 -2.25186,0.80881 -6.205477,0.71949 -12.854127,1.81302 -19.357727,0.66281 0,0 -3.39428,-0.49144 -3.71059,-1.52724 -0.3163,-1.0358 0.99012,-17.34137 -0.50016,-20.89108 -1.49027,-3.54972 -1.93332,-5.77781 -2.62147,-8.81671 2.85128,-7.59136 5.21679,-15.22093 5.41889,-23.27073 0.30398,-0.44831 0.67926,-0.95954 1.04294,-1.26712 1.25894,1.41668 2.33805,2.62593 3.72339,3.84036 1.36752,1.11376 2.42323,1.89435 4.28873,2.18335 2.06161,-0.42927 3.79567,-1.14047 5.45837,-2.57324 1.35047,-1.14199 1.52154,-0.80238 3.69414,-3.17755 z"
       id="path10519-0"
       sodipodi:nodetypes="ccczzcczzccccccc" /><g
       id="rect10841-7"
       style="display:inline"
       transform="matrix(0.83358088,0,0,0.83358088,3.5708773,16.572019)" /><path
       id="path11751-70"
       style="opacity:1;fill:#1a1a1a;fill-opacity:1;stroke:#000000;stroke-width:1.18506;stroke-dasharray:none;stroke-opacity:1;paint-order:stroke fill markers"
       d="M 39.955983 27.282253 C 39.277379 27.289698 34.244548 27.672446 34.200898 27.722207 C 34.154338 27.775277 37.058353 69.450396 37.248206 69.646962 C 37.438059 69.843527 42.967477 69.333979 43.079069 69.223193 C 43.190661 69.112407 40.090949 27.335086 40.030658 27.286299 C 40.02689 27.28325 40.001224 27.281757 39.955983 27.282253 z M 33.036639 27.864199 C 32.358034 27.871643 27.325204 28.254392 27.281554 28.304153 C 27.234994 28.357223 30.139376 70.032342 30.329229 70.228907 C 30.519082 70.425472 36.048131 69.915925 36.159724 69.805139 C 36.271316 69.694352 33.171604 27.916664 33.111313 27.867877 C 33.107545 27.864828 33.081879 27.863703 33.036639 27.864199 z " /><path
       id="path11751-7-4"
       style="fill:#1a1a1a;fill-opacity:1;stroke:#000000;stroke-width:1.18506;stroke-dasharray:none;stroke-opacity:1;paint-order:stroke fill markers"
       d="M 141.71412 27.938873 C 141.66888 27.938377 141.64285 27.939503 141.63908 27.942552 C 141.57879 27.991339 138.47908 69.768663 138.59067 69.879446 C 138.70227 69.990236 144.23168 70.499781 144.42153 70.303214 C 144.61138 70.106648 147.51581 28.431897 147.46921 28.378827 C 147.42557 28.329067 142.39274 27.946318 141.71412 27.938873 z M 148.63347 28.520451 C 148.58823 28.519955 148.5622 28.521448 148.55843 28.524498 C 148.49814 28.573285 145.39843 70.3506 145.51002 70.461392 C 145.62161 70.572173 151.15103 71.081727 151.34088 70.88516 C 151.53074 70.688594 154.43515 29.013475 154.38855 28.960406 C 154.3449 28.910645 149.31208 28.527896 148.63347 28.520451 z " /></g></svg>
